<svg id="Layer_1" data-name="Layer 1" xmlns="http://www.w3.org/2000/svg" viewBox="0 0 527.15 597.84"><defs><style>.cls-1{fill:#006148;}.cls-2{fill:#26ffef;}</style></defs><title>club</title><path class="cls-1" d="M249.94,9.51l-230,132.8a27.55,27.55,0,0,0-13.8,23.8v265.6a27.35,27.35,0,0,0,13.8,23.8l230,132.8a27.56,27.56,0,0,0,27.5,0l230-132.8a27.55,27.55,0,0,0,13.8-23.8V166.11a27.35,27.35,0,0,0-13.8-23.8l-230-132.8A27.56,27.56,0,0,0,249.94,9.51Z"/><path class="cls-2" d="M246.84,4.31q-26.4,15.3-52.8,30.5L91.14,94.21c-23.7,13.7-47.4,27.3-71.1,41-11.8,6.8-19.8,17.1-20,31.4-.1,7.4,0,14.9,0,22.3v241.2c.1,13.7,6.6,24.7,18.4,31.6,22.2,12.9,44.4,25.6,66.6,38.4q51.6,29.85,103.3,59.6c19.4,11.2,38.6,22.8,58.2,33.6a34.68,34.68,0,0,0,33.9.2l4.2-2.4c9.4-5.4,18.7-10.8,28.1-16.2q49.05-28.35,98.2-56.7,43.2-24.9,86.3-49.8c6-3.4,12.7-6.6,18-11,10.7-8.9,11.9-21.1,11.9-33.8V176.81c0-10.5.4-20.6-6.1-29.8-5.4-7.6-13.6-11.5-21.4-16-11.6-6.7-23.3-13.4-34.9-20.1q-51-29.4-101.9-58.8-38.4-22.2-76.7-44.3c-1.9-1.1-3.7-2.2-5.6-3.2-10.6-6.1-22.8-6.1-33.7-.3-6.8,3.7-.7,14,6.1,10.4,11.5-6.2,20.6-.5,30.3,5.1,10.8,6.2,21.5,12.4,32.3,18.6q49.65,28.65,99.2,57.3,40.05,23.1,80.1,46.3c8.1,4.7,16.9,8.6,19.6,18.6,1.7,6.2.7,13.7.7,20.1v244c0,10.3-.9,19.8-10.9,25.8-18.1,10.9-36.6,21.2-54.9,31.7q-50.7,29.25-101.4,58.6c-23.3,13.5-46.6,26.9-69.9,40.4-1.7,1-3.3,2-5,2.8-7.1,3.4-14.7,2.3-21.3-1.5-7.2-4.1-14.4-8.3-21.6-12.5L138,516.91l-92.1-53.1c-7.2-4.2-14.4-8.3-21.6-12.5-8.8-5.1-12.1-13.2-12.1-22.9V231.61c0-21.7-.4-43.4,0-65,.2-11.5,7.6-17.1,16.4-22.2,9.6-5.6,19.3-11.1,28.9-16.7q48.6-28,97.3-56.2,42.3-24.45,84.6-48.8c4.5-2.6,9.1-5.2,13.6-7.9C259.64,10.81,253.54.41,246.84,4.31Z"/><path class="cls-2" d="M286.24,452.41c-.1-29.5-.3-59.1-.4-88.6,0-6.5-.5-12.9-7.1-16.4-6.1-3.2-11.4-.5-16.6,2.5-14,8.1-28.1,16.2-42.1,24.3q-21.75,12.6-43.5,25.1c-2.6,1.5-5.3,3.9-8.4,2.8-3.5-1.3-7-4.1-10.3-5.9q-43.95-25.35-88-50.8c-2.5-1.4-5.5-2.5-5.9-5.6-.4-4,0-8.4,0-12.4V226.21c0-3-.6-5.9,2.1-7.8,3.4-2.4,7.3-4.2,10.9-6.3q43.8-25.2,87.5-50.5c2.6-1.5,4.6-3.3,7.6-1.9,4.2,2,8.3,4.8,12.3,7.1,16.2,9.3,32.3,18.7,48.5,28,11,6.3,21.8,13.1,33,19,9.3,4.9,19.7-1,20.1-11.5.3-7,0-14,0-20.9,0-28,.2-56,.3-84,.1-8.9.1-17.8.2-26.8,0-4.8-.4-9.9.1-14.7,1-8.8,12.4.3,16,2.4q43.65,25.2,87.2,50.5,42.15,24.45,84.4,48.9c8.1,4.7,16.2,8.6,16.5,19.7.2,7.4,0,14.7,0,22.1v205.8c0,7,1.4,16.6-2.2,23-3.8,6.7-13.7,10.7-20,14.5q-44.85,26.7-89.7,53.3-40.35,23.85-80.6,47.8a48.77,48.77,0,0,1-5.8,3.4c-6.1,2.6-5.7-4.1-5.7-7.8,0-17.2-.1-34.3-.1-51.5-.2-12-.2-23.8-.3-35.6,0-6.4-10-6.4-10,0,.1,29.6.1,59.2.2,88.9,0,8,3.7,15.8,12.7,16.4,4.2.3,7.4-1.6,10.9-3.6,9.6-5.7,19.1-11.4,28.7-17q49.95-29.7,99.9-59.3c14-8.3,27.9-16.6,41.9-24.9,5.9-3.5,12.2-6.8,17.9-10.7,7.8-5.3,11.9-13.8,12-23.2V253.91c0-25.3.2-50.7,0-76-.1-8.7-3.5-16.8-10.5-22.3a56.22,56.22,0,0,0-6.9-4.3c-10.2-5.9-20.5-11.9-30.7-17.8q-50.55-29.25-101.1-58.6-20.25-11.7-40.5-23.5c-6.1-3.6-14.8-10.6-22.3-9.7-16.1,1.9-12.2,24.7-12.2,36-.1,19.2-.2,38.5-.3,57.7-.1,9.3-.1,18.7-.1,28v28.5c0,3.5,1.9,15.8-4.9,13.2-3.6-1.4-7.1-4.1-10.4-6-7.4-4.3-14.9-8.6-22.3-12.9-16.4-9.5-32.8-18.9-49.2-28.4-4-2.3-8-4.8-12.1-7-5.4-2.9-10.5-2.1-15.6.9-12.6,7.3-25.3,14.6-37.9,21.9-16.4,9.5-32.8,18.9-49.2,28.4-4.3,2.5-8.6,4.8-12.8,7.4-5,3-7.4,7.4-7.5,13.2-.5,32.9,0,65.8,0,98.7,0,10-2.8,24.3,7,30.4,10.9,6.8,22.4,12.9,33.6,19.4,16.7,9.7,33.5,19.3,50.2,29,5.3,3,10.5,6.1,15.8,9.1s10.3,4.5,16.1,1.5c11.1-5.8,21.8-12.6,32.7-18.9,16.5-9.5,33-19.1,49.5-28.6,3.9-2.2,7.7-5,11.8-6.8,5.5-2.5,5.2,3.5,5.2,7,.1,17.4.1,34.8.2,52.1.1,12.2.1,24.5.2,36.7C276.34,458.81,286.34,458.91,286.24,452.41Z"/><path class="cls-2" d="M276.64,267.11h-24.3a5,5,0,0,0-4.3,2.5l-6.6,11.4c-1.8,3.2-6.3,8.3-6.3,12.2s4.2,8.7,6,11.8c2.3,3.9,4.5,7.9,6.8,11.8a5.17,5.17,0,0,0,4.3,2.5h24.3a5,5,0,0,0,4.3-2.5l6.6-11.4c1.8-3.2,6.3-8.3,6.3-12.2s-4.2-8.7-6-11.8c-2.3-3.9-4.5-7.9-6.8-11.8-3.2-5.6-11.9-.5-8.6,5,4.1,7,8.1,14,12.2,21.1v-5c-4.1,7-8.1,14-12.2,21.1,1.4-.8,2.9-1.7,4.3-2.5h-24.3c1.4.8,2.9,1.7,4.3,2.5-4.1-7-8.1-14-12.2-21.1v5c4.1-7,8.1-14,12.2-21.1-1.4.8-2.9,1.7-4.3,2.5h24.3C283,277.11,283,267.11,276.64,267.11Z"/><path class="cls-2" d="M337,217.11v97.1l5-5h-28.1c1.4.8,2.9,1.7,4.3,2.5-4.1-7-8.1-14-12.2-21.1v5c4.1-7,8.1-14,12.2-21.1-1.4.8-2.9,1.7-4.3,2.5h14.7a5.08,5.08,0,0,0,5-5V255c0-6.4-10-6.4-10,0v17l5-5h-14.7a5,5,0,0,0-4.3,2.5l-6.6,11.4c-1.8,3.2-6.3,8.3-6.3,12.2s4.2,8.7,6,11.8c2.3,3.9,4.5,7.9,6.8,11.8a5.17,5.17,0,0,0,4.3,2.5h28.1a5.08,5.08,0,0,0,5-5v-97.1c.1-6.5-9.9-6.5-9.9,0Z"/><path class="cls-2" d="M357.44,260.61c7.7,0,7.7-12,0-12s-7.7,12,0,12Z"/><path class="cls-2" d="M418.94,315.71c0-11.2.3-22.4,0-33.5-.1-5.3-4.4-6.7-8.5-9-5-2.9-10.1-5.8-15.1-8.7a5,5,0,0,0-5,0c-7,4.1-14,8.1-21.1,12.2a5.17,5.17,0,0,0-2.5,4.3v33.7c0,6.4,10,6.4,10,0V281c-.8,1.4-1.7,2.9-2.5,4.3,7-4.1,14-8.1,21.1-12.2h-5c7,4.1,14,8.1,21.1,12.2-.8-1.4-1.7-2.9-2.5-4.3v34.8c0,6.4,10,6.4,10-.1Z"/><path class="cls-2" d="M460,329.11v-14.4a5.08,5.08,0,0,0-5-5h-14.7c1.4.8,2.9,1.7,4.3,2.5-4.1-7-8.1-14-12.2-21.1v5c4.1-7,8.1-14,12.2-21.1-1.4.8-2.9,1.7-4.3,2.5h28.1l-5-5v97.1c.8-1.4,1.7-2.9,2.5-4.3-6.9,4.5-13.7,8.9-20.6,13.4h5l-19.5-12.3c-5.5-3.4-10.5,5.2-5,8.6l19.5,12.3a5,5,0,0,0,5,0c6.7-4.4,14.2-8.3,20.5-13.3,4.1-3.3,2.5-11.6,2.5-16.3v-85.2a5.08,5.08,0,0,0-5-5h-28.1a5,5,0,0,0-4.3,2.5l-6.6,11.4c-1.8,3.2-6.3,8.3-6.3,12.2s4.2,8.7,6,11.8c2.3,3.9,4.5,7.9,6.8,11.8a5.17,5.17,0,0,0,4.3,2.5h14.7l-5-5v14.4c.2,6.4,10.2,6.4,10.2,0Z"/><path class="cls-2" d="M332.24,415.21v26.1c.8-1.4,1.7-2.9,2.5-4.3l-19.2,11.1h5L301.34,437c.8,1.4,1.7,2.9,2.5,4.3v-26.1c0-6.4-10-6.4-10,0v26.1a5,5,0,0,0,2.5,4.3c6,3.5,12,7.2,18.1,10.5s13.1-3.4,18.3-6.4a62.34,62.34,0,0,0,7.1-4.1c3.1-2.3,2.5-5.7,2.5-9.2v-21.3c-.1-6.3-10.1-6.3-10.1.1Z"/><path class="cls-2" d="M352.24,272.61v179.3a5.08,5.08,0,0,0,5,5h28.1a5,5,0,0,0,4.3-2.5c3.2-5.5,6.4-11.1,9.6-16.6,1.1-2,3.3-4.6,3.3-7s-2.3-5.3-3.5-7.4c-2-3.5-4.1-7.1-6.1-10.6-1.1-1.9-2.1-4.4-3.6-6.1-2.4-2.7-6.1-2-9.4-2h-9.3l5,5v-22.6c0-6.4-10-6.4-10,0v22.6a5.08,5.08,0,0,0,5,5h14.7c-1.4-.8-2.9-1.7-4.3-2.5,4.1,7,8.1,14,12.2,21.1v-5c-4.1,7-8.1,14-12.2,21.1,1.4-.8,2.9-1.7,4.3-2.5h-28.1l5,5V272.61c0-6.5-10-6.5-10,0Z"/><path class="cls-2" d="M235.14,154.81v70.5c0,.8.6,4.9-.3,5.3-.7.3-5.1-3-5.7-3.3-4.4-2.5-8.7-5-13.1-7.5-10.3-6-20.6-11.9-31-17.9-6.3-3.6-13.5-9.8-21-6.1-6.6,3.3-12.9,7.4-19.2,11.1-10.6,6.1-21.2,12.3-31.8,18.4-3.7,2.1-7.4,4.3-11.1,6.4-2.6,1.5-5.4,2.9-7,5.6s-1.4,5.7-1.4,8.7v49.3c0,7.5-.4,15.1,0,22.6.5,8,8.3,10.9,14.4,14.4l31.2,18c7.9,4.5,15.7,9.3,23.7,13.7,6.9,3.8,11.7.8,17.7-2.6,9.9-5.7,19.8-11.4,29.7-17.2,4.9-2.8,9.8-5.6,14.7-8.5,2.6-1.5,6-4.4,8.9-5.1,1.8-.4,1.3-.2,1.3,1.9V346c0,11.6.1,23.1.1,34.7v7a5,5,0,0,0,7.5,4.3c6.9-4.1,13.7-8.1,20.6-12.2-2.5-1.4-5-2.9-7.5-4.3v43.2c2.5-1.4,5-2.9,7.5-4.3-7-4.1-14-8.1-21.1-12.2a5,5,0,0,0-5,0l-11.4,6.6c-3.2,1.8-9.5,4-11.5,7.4s-.7,9.7-.7,13.2V443a5,5,0,0,0,2.5,4.3c7,4.1,14,8.1,21.1,12.2a5,5,0,0,0,5,0c7-4.1,14-8.1,21.1-12.2-2.5-1.4-5-2.9-7.5-4.3-.1,31.4-.2,62.7-.2,94.1,0,8-6.3,14.5-14.5,10.4-2.2-1.1-4.3-2.4-6.4-3.6-12.2-6.9-24.3-13.9-36.5-20.8q-54.3-31.05-108.7-62c-12.8-7.3-25.5-14.5-38.3-21.8-6.9-3.9-13.7-6.9-13.7-16.2-.2-28.5,0-56.9,0-85.4V178.11c0-3.7-.2-7.3,1.9-10.6,2-3.1,5.4-4.7,8.5-6.5q45.3-26.7,90.5-53.5c27-16,53.9-32.2,81-47.9,7-4,15.6-1,16,7.9.2,4.6,0,9.4,0,14-.1,20.1-.1,40.3-.2,60.4-.1,4.3-.1,8.6-.1,12.9,0,6.4,10,6.4,10,0,.1-15.5.1-31.1.2-46.6,0-10,.1-19.9.1-29.9,0-5.4.8-11.8-1-17.1-4-12.2-18.2-16.7-29.1-10.7-2.7,1.5-5.3,3.1-8,4.7l-41.7,24.6q-53.85,31.8-107.7,63.7c-5,3-10.1,6-15.1,8.9-3.6,2.1-7.2,4.1-10,7.3-7,8.1-5.3,20.1-5.3,30.1v224.9c0,11.4,0,22,11.3,28.9,8,4.9,16.3,9.3,24.4,13.9q54.75,31.2,109.4,62.4c15.6,8.9,31.3,17.8,46.9,26.7,7.4,4.2,17,11.8,25.8,12.1,11.9.4,20.2-9.4,20.3-20.7.1-6.4,0-12.9,0-19.3.1-20.9.1-41.8.2-62.7V443a5,5,0,0,0-7.5-4.3c-7,4.1-14,8.1-21.1,12.2h5c-7-4.1-14-8.1-21.1-12.2.8,1.4,1.7,2.9,2.5,4.3v-24.3c-.8,1.4-1.7,2.9-2.5,4.3,7-4.1,14-8.1,21.1-12.2h-5c7,4.1,14,8.1,21.1,12.2a5,5,0,0,0,7.5-4.3v-43.2a5,5,0,0,0-7.5-4.3c-6.9,4.1-13.7,8.1-20.6,12.2,2.5,1.4,5,2.9,7.5,4.3,0-18.5-.1-36.9-.1-55.4,0-4.8-1.4-9.4-6.2-11.5-4.1-1.8-7.8-.3-11.3,1.8-8.6,5-17.2,9.9-25.8,14.9L173.34,354c-1,.6-2.9,2.2-4.1,2.1-1.8-.1-4.8-2.8-6.2-3.6l-56.1-32.4c-1-.6-2.8-1.2-3.2-2.2-.8-1.7,0-5.9,0-7.8v-64.5c0-1.2-.3-2.6.4-3.5,1.2-1.6,5-2.9,6.7-3.9,18.6-10.8,37.3-21.5,55.9-32.3,1.2-.7,2.1-1.5,3.3-1.3,2.5.4,5.8,3.3,7.9,4.6,10.3,5.9,20.5,11.8,30.8,17.8,7,4,13.9,8.5,21,12.1,6.5,3.3,14.3.1,15.4-7.4a44.22,44.22,0,0,0,.2-6.3v-70.5C245.14,148.41,235.14,148.41,235.14,154.81Z"/></svg>